<svg id="orbit" enable-background="new 0 0 300 300" height="512" viewBox="0 0 300 300" width="512" xmlns="http://www.w3.org/2000/svg"><path d="m244.918 206.243c9.867-17.207 15.082-36.847 15.082-56.797 0-12.433-1.984-24.662-5.897-36.347-.001-.002 0-.005-.001-.007-.871-2.59-1.852-5.197-2.918-7.752-.852-2.041-3.203-3-5.234-2.15-2.035.852-3 3.193-2.148 5.232.992 2.379 1.906 4.807 2.715 7.217 0 .002.002.003.002.005 3.639 10.864 5.482 22.237 5.482 33.802 0 18.555-4.848 36.818-14.02 52.816v.001c-.002.003-.005.005-.007.008-1.27 2.211-2.637 4.412-4.07 6.541-1.234 1.834-.75 4.318 1.082 5.553.688.461 1.461.682 2.23.682 1.285 0 2.551-.619 3.32-1.766 1.542-2.288 3.015-4.653 4.374-7.027.002-.003.006-.006.008-.011z"/><path d="m83.961 61.944c.77 0 1.547-.221 2.234-.684 2.126-1.436 4.326-2.806 6.53-4.076.003-.002.006-.002.009-.004 16.027-9.211 34.324-14.08 52.918-14.08 11.556 0 22.917 1.84 33.762 5.469.001 0 .002.002.004.002 2.418.807 4.84 1.717 7.207 2.707.504.211 1.027.312 1.543.312 1.562 0 3.047-.924 3.691-2.457.852-2.037-.109-4.381-2.148-5.234-2.538-1.064-5.147-2.043-7.748-2.913-.001 0-.001-.001-.002-.001-.002-.001-.004-.001-.006-.002s-.004-.001-.006-.002c-.001 0-.002 0-.003 0-11.664-3.901-23.873-5.88-36.294-5.88-19.988 0-39.668 5.236-56.902 15.143-.003.002-.004.005-.008.007-2.372 1.364-4.737 2.837-7.024 4.378-1.828 1.234-2.312 3.721-1.078 5.553.774 1.145 2.036 1.762 3.321 1.762z"/><path d="m221.223 103.935c16.574 0 30.059-13.482 30.059-30.057s-13.484-30.059-30.059-30.059-30.059 13.484-30.059 30.059 13.484 30.057 30.059 30.057zm0-52.116c7.769 0 14.598 4.047 18.529 10.133h-8.107c-2.211 0-4 1.791-4 4s1.789 4 4 4h11.267c.23 1.276.37 2.584.37 3.926 0 12.162-9.895 22.057-22.059 22.057-5.552 0-10.617-2.077-14.499-5.475h9.288c2.211 0 4-1.791 4-4s-1.789-4-4-4h-14.25c-.278 0-.521.104-.783.158-1.163-2.682-1.815-5.635-1.815-8.74 0-12.164 9.895-22.059 22.059-22.059z"/><path d="m223.645 83.089h5.215c2.211 0 4-1.791 4-4s-1.789-4-4-4h-5.215c-2.211 0-4 1.791-4 4s1.789 4 4 4z"/><path d="m211.437 146.22c0-.003 0-.006 0-.008-1.126-19.007-10.134-35.904-23.857-47.298-.064-.06-.138-.1-.205-.155-11.342-9.344-25.808-14.966-41.558-14.966-36.293 0-65.816 29.787-65.816 66.4s29.523 66.4 65.816 66.4 65.82-29.787 65.82-66.4c0-1.342-.122-2.652-.2-3.973zm-8.212-2.732c-.691.228-1.001.3-.968.304h-22.257c-2.211 0-4 1.791-4 4 0 2.205-1.793 4-4 4-2.211 0-4 1.791-4 4v18c0 3.309-2.691 6-6 6s-6-2.691-6-6v-10c0-2.209-1.789-4-4-4h-6c-1.102 0-2-.896-2-2s.898-2 2-2h12c5.516 0 10-4.486 10-10s-4.484-10-10-10h-16c-1.102 0-2-.896-2-2s.898-2 2-2h14c2.211 0 4-1.791 4-4 0-2.154 1.754-3.908 3.93-3.908 2.211 0 4-1.791 4-4 0-2.944 8.162-9.051 16.268-13.249 10.334 9.301 17.365 22.248 19.027 36.853zm-49.954-51.154c-1.756 1.357-3.926 2.156-6.251 2.156-2.404 0-4.638-.929-6.44-2.429 1.728-.158 3.469-.268 5.237-.268 2.531-.001 5.007.22 7.454.541zm-45.271 13.785v18.63c0 3.883-3.562 7.043-7.938 7.043h-9.076c3.316-10.05 9.26-18.875 17.014-25.673zm-19.719 49.673h12.555c1.715 0 3.164 1.83 3.164 3.996v7.672c0 1.014-.309 1.984-.871 2.734l-7.126 9.496c-4.166-7.148-6.902-15.235-7.722-23.898zm49.674 52.196c1.701-3.382 5.159-5.659 9.065-5.659 3.844 0 7.201 2.099 8.942 5.306-3.3.594-6.679.958-10.146.958-2.673 0-5.284-.249-7.861-.605zm25.854-2.328c-2.738-6.745-9.208-11.331-16.789-11.331-7.697 0-14.459 4.902-17.052 11.978-11.656-3.365-21.813-10.312-29.215-19.619l8.779-11.695c1.59-2.127 2.469-4.803 2.469-7.533v-7.672c0-6.615-5.008-11.996-11.164-11.996h-12.717c.11-2.718.384-5.39.851-8h11.091c8.789 0 15.938-6.748 15.938-15.043v-24.416c0-.026-.009-.05-.009-.075 4.768-2.917 9.973-5.146 15.507-6.579 3.302 5.44 9.16 8.81 15.522 8.81 6.243 0 11.899-3.169 15.231-8.26 5.379 1.615 10.424 4.002 15.027 7.032-6.139 3.456-14.206 8.957-16.629 15.078-3.699 1.055-6.672 3.857-7.957 7.453h-10.692c-5.516 0-10 4.486-10 10s4.484 10 10 10h16c1.102 0 2 .896 2 2s-.898 2-2 2h-12c-5.516 0-10 4.486-10 10s4.484 10 10 10h2v6c0 7.719 6.281 14 14 14s14-6.281 14-14v-14.686c3.406-1.207 6.109-3.91 7.316-7.314h18.961c.334 0 .747-.032 1.286-.13-.626 25.208-17.105 46.483-39.754 53.998z"/><path d="m145.914 243.899c-1.562-1.562-4.094-1.562-5.656 0l-4.258 4.258-4.258-4.258c-1.562-1.562-4.094-1.562-5.656 0s-1.562 4.094 0 5.656l4.258 4.258-4.258 4.258c-1.562 1.562-1.562 4.094 0 5.656.781.781 1.805 1.172 2.828 1.172s2.047-.391 2.828-1.172l4.258-4.257 4.258 4.258c.781.781 1.805 1.172 2.828 1.172s2.047-.391 2.828-1.172c1.562-1.562 1.562-4.094 0-5.656l-4.258-4.258 4.258-4.258c1.563-1.563 1.563-4.094 0-5.657z"/><path d="m57.914 51.899c-1.562-1.562-4.094-1.562-5.656 0l-4.258 4.258-4.258-4.258c-1.562-1.562-4.094-1.562-5.656 0s-1.562 4.094 0 5.656l4.258 4.258-4.258 4.258c-1.562 1.562-1.562 4.094 0 5.656.781.781 1.805 1.172 2.828 1.172s2.047-.391 2.828-1.172l4.258-4.257 4.258 4.258c.781.781 1.805 1.172 2.828 1.172s2.047-.391 2.828-1.172c1.562-1.562 1.562-4.094 0-5.656l-4.258-4.258 4.258-4.258c1.563-1.563 1.563-4.094 0-5.657z"/><path d="m57.914 159.899c-1.562-1.562-4.094-1.562-5.656 0l-4.258 4.258-4.258-4.258c-1.562-1.562-4.094-1.562-5.656 0s-1.562 4.094 0 5.656l4.258 4.258-4.258 4.258c-1.562 1.562-1.562 4.094 0 5.656.781.781 1.805 1.172 2.828 1.172s2.047-.391 2.828-1.172l4.258-4.257 4.258 4.258c.781.781 1.805 1.172 2.828 1.172s2.047-.391 2.828-1.172c1.562-1.562 1.562-4.094 0-5.656l-4.258-4.258 4.258-4.258c1.563-1.563 1.563-4.094 0-5.657z"/><path d="m257.656 233.813 4.258-4.258c1.562-1.562 1.562-4.094 0-5.656s-4.094-1.562-5.656 0l-4.258 4.258-4.258-4.258c-1.562-1.562-4.094-1.562-5.656 0s-1.562 4.094 0 5.656l4.258 4.258-4.258 4.258c-1.562 1.562-1.562 4.094 0 5.656.781.781 1.805 1.172 2.828 1.172s2.047-.391 2.828-1.172l4.258-4.257 4.258 4.258c.781.781 1.805 1.172 2.828 1.172s2.047-.391 2.828-1.172c1.562-1.562 1.562-4.094 0-5.656z"/><circle cx="48" cy="259.792" r="4"/><circle cx="212" cy="255.792" r="4"/><circle cx="188" cy="219.792" r="4"/><circle cx="48" cy="111.792" r="4"/><circle cx="224" cy="171.792" r="4"/><circle cx="164" cy="59.792" r="4"/><circle cx="88" cy="227.792" r="4"/></svg>